<?xml version="1.0" encoding="UTF-8" standalone="no"?>
<!-- Created with Inkscape (http://www.inkscape.org/) -->

<svg
   xmlns:dc="http://purl.org/dc/elements/1.1/"
   xmlns:cc="http://creativecommons.org/ns#"
   xmlns:rdf="http://www.w3.org/1999/02/22-rdf-syntax-ns#"
   xmlns:svg="http://www.w3.org/2000/svg"
   xmlns="http://www.w3.org/2000/svg"
   xmlns:xlink="http://www.w3.org/1999/xlink"
   xmlns:sodipodi="http://sodipodi.sourceforge.net/DTD/sodipodi-0.dtd"
   xmlns:inkscape="http://www.inkscape.org/namespaces/inkscape"
   width="160"
   height="120"
   id="svg2"
   version="1.1"
   inkscape:version="0.48.3.1 r9886"
   sodipodi:docname="assets.svg"
   inkscape:export-filename="/home/david/Web/pfc/app/img/assets.png"
   inkscape:export-xdpi="90"
   inkscape:export-ydpi="90">
  <defs
     id="defs4">
    <filter
       x="-0.5"
       y="-0.5"
       height="2"
       width="2"
       id="svg_3_blur"
       color-interpolation-filters="sRGB">
      <feGaussianBlur
         stdDeviation="7.7"
         id="feGaussianBlur9" />
    </filter>
  </defs>
  <sodipodi:namedview
     id="base"
     pagecolor="#ffffff"
     bordercolor="#666666"
     borderopacity="1.0"
     inkscape:pageopacity="0.0"
     inkscape:pageshadow="2"
     inkscape:zoom="32"
     inkscape:cx="15.743786"
     inkscape:cy="7.4833503"
     inkscape:document-units="px"
     inkscape:current-layer="capa1"
     showgrid="false"
     inkscape:window-width="1366"
     inkscape:window-height="722"
     inkscape:window-x="0"
     inkscape:window-y="156"
     inkscape:window-maximized="1" />
  <metadata
     id="metadata7">
    <rdf:RDF>
      <cc:Work
         rdf:about="">
        <dc:format>image/svg+xml</dc:format>
        <dc:type
           rdf:resource="http://purl.org/dc/dcmitype/StillImage" />
        <dc:title />
      </cc:Work>
    </rdf:RDF>
  </metadata>
  <g
     inkscape:groupmode="layer"
     id="layer1"
     inkscape:label="fons"
     style="display:none"
     transform="translate(0,40)"
     sodipodi:insensitive="true">
    <rect
       style="fill:#ff0000;fill-opacity:1;stroke:none"
       id="rect5988"
       width="40"
       height="40"
       x="0"
       y="40" />
  </g>
  <g
     inkscape:label="Capa 1"
     inkscape:groupmode="layer"
     id="capa1"
     transform="translate(0,-932.36218)">
    <g
       transform="matrix(0.05253434,0,0,-0.05253434,8.868206,964.69624)"
       id="g3309">
      <circle
         sodipodi:ry="36.305"
         sodipodi:rx="36.305"
         sodipodi:cy="421.263"
         sodipodi:cx="114.141"
         cx="114.141"
         cy="421.263"
         r="36.305"
         id="circle3311"
         d="m 150.446,421.263 c 0,20.0507 -16.2543,36.305 -36.305,36.305 -20.050699,0 -36.305001,-16.2543 -36.305001,-36.305 0,-20.0507 16.254302,-36.305 36.305001,-36.305 20.0507,0 36.305,16.2543 36.305,36.305 z"
         style="fill:#c8f7c5;fill-opacity:1" />
      <circle
         sodipodi:ry="37.2365"
         sodipodi:rx="37.2365"
         sodipodi:cy="430.73099"
         sodipodi:cx="320.52399"
         cx="320.52399"
         cy="430.73099"
         r="37.2365"
         id="circle3313"
         d="m 357.76049,430.73099 c 0,20.56515 -16.67135,37.2365 -37.2365,37.2365 -20.56515,0 -37.2365,-16.67135 -37.2365,-37.2365 0,-20.56515 16.67135,-37.2365 37.2365,-37.2365 20.56515,0 37.2365,16.67135 37.2365,37.2365 z"
         style="fill:#c8f7c5;fill-opacity:1" />
      <path
         inkscape:connector-curvature="0"
         d="m 109.114,154.839 0,-126.2304 c -0.19,-22.93453 -34.3281,-22.93453 -34.6296,0 l 0,126.2304 -44.6836,0 48.0349,168.679 -7.8198,0 -27.927,-96.069 C 35.0288,206.202 6.29761,214.804 13.0444,237.503 L 44.323,341.392 c 3.5969,11.93 18.6331,32.997 44.6836,33.512 l 50.2694,0 c 25.3,-0.515 40.398,-21.761 44.683,-33.512 l 42.15062,-107.36792 c 6.345,-22.587 -22.159,-31.859 -29.045,-10.054 L 158.266,323.518 l -8.937,0 49.152,-168.679 -45.8,0 0,-126.2304 c 0.357,-22.93453 -33.647,-22.82198 -33.513,0 l 0,126.2304 z"
         id="path3315"
         style="fill:#c8f7c5;fill-opacity:1" />
      <path
         inkscape:connector-curvature="0"
         d="m 407,219 0,115 c 0,24 -19,49 -48,49 l -74,0 c -24,0 -34,-13 -43,-40 L 197.86784,232.69541 c -7,-21 23,-31 30,-10 L 270,325 l 4,0 0,-291 c 0,-31 43,-30 43,0 l 0,169 6,0 0,-169 c 1,-30 44,-31 44,0 l 0,291 8,0 0,-106 c 0,-22 32,-22 32,0 z"
         id="path3317"
         style="fill:#c8f7c5;fill-opacity:1" />
    </g>
    <g
       transform="matrix(0.20922226,0,0,0.20922226,43.98076,938.49935)"
       id="g5627">
      <path
         inkscape:connector-curvature="0"
         d="m 146.334,99.878 c -0.704,-3.407 -1.418,-6.814 -2.198,-10.204 -0.491,-2.137 -0.972,-4.293 -1.691,-6.359 -1.824,-5.243 -4.716,-9.849 -8.625,-13.814 -0.77,-0.781 -1.172,-1.736 -0.722,-2.872 0.168,-0.423 0.307,-0.86 0.434,-1.297 0.813,-2.809 0.478,-5.469 -1.403,-7.734 -1.801,-2.169 -4.24,-2.885 -6.974,-2.232 -2.654,0.634 -4.19,2.447 -4.779,5.068 -0.171,0.763 -0.199,1.558 -0.293,2.341 -1.164,0.005 -3.021,-0.583 -4.29,-1.478 -1,-0.706 -1.934,-1.507 -2.896,-2.268 -0.743,-0.588 -1.437,-1.256 -2.235,-1.756 -2.521,-1.575 -5.259,-2.628 -8.158,-3.296 -3.309,-0.763 -6.661,-0.938 -10.029,-0.771 -3.125,0.155 -6.221,0.605 -9.279,1.275 -9.954,2.182 -19.239,5.819 -26.953,12.717 -1.555,1.39 -2.931,3.013 -4.216,4.664 -2.278,2.926 -3.943,6.214 -5.318,9.656 -1.095,2.741 -1.792,5.538 -1.524,8.518 0.024,0.267 -0.028,0.552 -0.097,0.815 l 0.152,0.276 c -0.652,2.001 -1.699,3.719 -3.561,4.876 -1.595,0.991 -3.317,1.616 -5.141,2.037 -2.658,0.614 -5.346,0.883 -8.042,0.515 C 22.65,97.757 17.824,95.108 14.133,90.435 12.267,88.072 10.968,85.436 10.093,82.583 9.363,80.2 9.108,77.75 9.146,75.252 c 0.08,-5.234 1.384,-10.191 3.195,-15.058 1.194,-3.209 2.712,-6.24 4.601,-9.091 2.66,-4.016 5.388,-7.979 8.72,-11.486 2.79,-2.936 5.939,-5.458 9.117,-7.948 2.716,-2.128 5.451,-4.233 8.131,-6.406 2.643,-2.143 5.241,-4.343 7.825,-6.558 0.489,-0.419 0.938,-0.971 1.198,-1.553 0.401,-0.9 -0.135,-1.535 -1.108,-1.396 -0.469,0.067 -0.96,0.203 -1.367,0.437 -1.257,0.723 -2.529,1.438 -3.703,2.283 -4.979,3.583 -9.951,7.177 -14.871,10.839 -2.669,1.986 -5.312,4.023 -7.812,6.214 -1.793,1.571 -3.426,3.353 -4.958,5.185 -1.908,2.283 -3.75,4.638 -5.42,7.098 -3.344,4.926 -6.052,10.182 -7.786,15.914 -1.455,4.81 -2.034,9.713 -1.604,14.708 0.286,3.312 0.836,6.606 2.043,9.726 0.815,2.107 1.942,4.05 3.456,5.779 3.47,3.964 7.651,6.886 12.522,8.846 0.689,0.277 1.391,0.522 2.087,0.782 1.22,0.278 2.44,0.556 3.661,0.834 1.283,0.092 2.564,0.235 3.848,0.268 3.501,0.089 6.858,-0.581 10.053,-2.033 1.359,-0.618 2.705,-1.269 4.081,-1.847 1.596,-0.672 3.229,-1.148 4.939,-1.03 l 0.242,0.439 c 0.146,0.029 0.287,0.128 0.41,0.221 3.24,2.462 6.908,3.744 10.954,4 0.208,0.013 0.445,0.052 0.61,0.164 1.524,1.045 3.244,1.643 4.962,2.263 2.459,0.886 5,0.987 7.569,0.916 2.667,-0.074 5.038,0.63 7.017,2.528 0.458,0.439 1.146,0.664 1.76,0.906 0.525,0.208 1.066,0.343 1.277,0.949 0.067,0.192 0.119,0.389 0.185,0.609 0.709,-0.628 0.833,-1.299 0.227,-1.958 -1.011,-1.1 -1.95,-2.293 -3.281,-3.056 -0.126,-0.072 -0.244,-0.16 -0.366,-0.24 0.012,-0.074 0.023,-0.147 0.035,-0.221 1.116,0.04 2.234,0.065 3.35,0.123 1.255,0.066 2.266,0.617 3.098,1.559 0.431,0.488 0.917,0.935 1.424,1.344 0.747,0.602 1.58,0.777 2.506,0.378 0.189,-0.082 0.461,-0.049 0.673,0.01 0.673,0.19 0.896,0.762 1.025,1.396 0.62,-0.49 0.809,-0.988 0.452,-1.566 -0.268,-0.434 -0.712,-0.762 -1.092,-1.122 -0.153,-0.145 -0.379,-0.219 -0.513,-0.376 -0.55,-0.642 -1.077,-1.303 -1.613,-1.958 0.51,0.353 0.956,0.778 1.371,1.23 0.406,0.444 0.799,0.889 1.449,0.957 1.056,0.11 2.025,0.339 2.155,1.679 0.66,-0.561 0.755,-1.041 0.432,-1.726 -0.284,-0.601 -0.772,-0.934 -1.373,-1.147 -0.141,-0.05 -0.317,-0.091 -0.401,-0.197 -0.689,-0.862 -1.36,-1.739 -2.006,-2.572 0.076,0.001 0.272,0.009 0.468,0.004 2.351,-0.058 4.711,-0.015 7.051,-0.206 2.64,-0.215 5.263,-0.646 7.895,-0.966 0.145,-0.018 0.384,0.087 0.454,0.208 0.707,1.212 1.717,1.974 3.092,2.315 2.058,0.51 3.984,1.219 5.063,3.299 0.384,0.739 1.106,0.757 1.606,0.184 -0.187,-0.103 -0.365,-0.202 -0.524,-0.29 0.695,-1.272 -0.285,-2.17 -0.687,-3.19 0.939,-0.083 1.952,0.49 2.353,1.267 0.235,0.456 0.508,0.894 0.777,1.331 0.192,0.313 0.45,0.437 0.789,0.196 0.265,-0.189 0.529,-0.378 0.794,-0.568 -0.041,-0.326 0.012,-0.707 -0.141,-0.968 -0.363,-0.622 -0.823,-1.188 -1.244,-1.776 0.041,-0.042 0.082,-0.084 0.123,-0.125 0.467,0.438 0.923,0.887 1.405,1.308 0.275,0.241 0.585,0.446 0.893,0.647 0.168,0.11 0.44,0.129 0.531,0.273 0.197,0.315 0.308,0.684 0.474,1.077 0.417,-0.125 0.627,-0.478 0.524,-0.954 -0.099,-0.457 -0.26,-0.911 -0.459,-1.335 -0.481,-1.025 -1.381,-1.651 -2.322,-2.258 0.829,-0.361 1.014,-0.265 1.439,0.701 0.642,-0.552 0.303,-1.578 -0.587,-1.943 -0.792,-0.324 -1.549,-0.734 -2.321,-1.107 0.003,-0.066 0.007,-0.131 0.01,-0.197 2.147,-0.13 4.293,-0.316 6.443,-0.371 1.604,-0.041 3.149,0.422 4.578,1.118 2.065,1.007 4.052,2.188 6.275,2.828 2.037,0.587 3.964,0.444 5.594,-1.11 0.125,-0.119 0.259,-0.227 0.375,-0.328 1.062,0.519 1.942,0.383 2.62,-0.526 0.339,-0.454 0.616,-1.051 0.661,-1.605 0.065,-0.769 -0.041,-1.578 -0.2,-2.346 z"
         id="path5629"
         style="fill:#c8f7c5;fill-opacity:1" />
    </g>
    <path
       style="fill:#c8f7c5;fill-opacity:1;fill-rule:evenodd"
       inkscape:connector-curvature="0"
       clip-rule="evenodd"
       d="m 85.583783,954.32622 0.315937,2.34012 c 0,0 0.956988,0.0697 1.517213,0 1.215975,1.56681 3.962025,1.60171 5.817225,2.52747 -0.01475,1.42903 -1.647638,1.87903 -1.7707,2.78463 0.225925,0.088 0.439,-0.3674 0.637375,-0.3398 0.185525,0.029 0.35635,0.5474 0.519825,0.5308 1.423537,-0.1286 2.092137,-1.7799 2.384187,-3.22912 2.459513,0.31043 1.0672,2.03332 0.505138,3.16482 0.288375,-0.094 0.991875,-0.4959 1.256387,-0.4518 0,0 0.323275,0.5676 0.894525,0.1983 0.0012,-0.9882 0.587788,-1.9984 0.25165,-2.91132 2.667065,-0.1065 5.734565,-0.36185 8.221625,-1.51537 1.03413,-0.48125 2.105,-1.61641 2.52746,-0.25533 0.7035,2.26298 -1.87907,3.68472 -2.27398,4.68202 0.11575,0.028 0.57676,-0.3012 0.68697,-0.281 0.11575,0.018 0.13593,0.3894 -0.0112,0.3894 2.18215,0.1506 2.76075,-2.0021 3.11709,-3.90323 1.50436,0.94596 0.2443,2.70383 -0.25164,3.79483 0.5437,-0.1119 0.39859,-0.092 0.63186,0.2535 1.99479,0.4409 2.21705,-2.74234 1.8956,-4.42672 -0.12487,-0.67595 -0.74207,-0.85962 -0.7586,-1.39415 -0.0184,-0.69063 0.63554,-0.93126 0.88535,-1.38863 0.45737,-0.83392 0.34532,-1.59253 0.7586,-2.27949 0.74943,0.18 0.77148,1.08556 0.88535,1.89927 0.45187,-0.26267 0.20205,-1.17373 0.12488,-1.64396 0.99922,-0.2645 1.846,-1.95989 0.6337,-2.90769 -0.68514,-0.35818 -1.3519,0.0809 -1.51905,0.63187 -1.1223,-0.97903 -1.1719,-1.99295 -2.02235,-2.78279 -2.87646,-2.66156 -5.7566,-3.60385 -10.81521,-3.22546 -5.05678,0.38022 -9.73333,5.45903 -10.05478,5.50128 0.225925,-0.0313 -1.890087,-0.64288 -2.402562,-0.75861 -0.552888,-0.12487 -0.96985,-0.34531 -1.265575,-0.38021 -0.068,1.17189 1.891925,2.08479 2.026012,3.03442 0.240625,1.70825 -3.348525,2.34195 -3.348525,2.34195 z m 28.140137,-3.22546 c 0.5988,-1.07086 1.65498,0.66126 0.50513,0.88535 -0.20022,-0.26266 -0.41329,-0.51615 -0.50513,-0.88535 z m -23.8585,1.85703 c 0,-0.41879 0.337975,-0.75493 0.754938,-0.75493 0.41695,0 0.754925,0.33798 0.754925,0.75493 0,0.41696 -0.339813,0.75493 -0.754925,0.75493 -0.416963,0 -0.754938,-0.33797 -0.754938,-0.75493 z"
       id="path5697" />
    <g
       transform="matrix(0.62485898,0,0,0.62485898,128.26061,939.61743)"
       style="fill:#7fff00;fill-rule:nonzero;stroke:none"
       id="g132">
      <path
         inkscape:connector-curvature="0"
         d="M 10.0107,39.0535 C 7.13161,38.8487 5.62645,37.8109 4.85338,36.6592 5.00155,33.8554 5.43084,30.3632 6.63731,27.1939 7.32897,25.379 8.31054,23.736 9.51466,22.5283 10.8312,21.0887 12.0477,19.981 13.2734,19.0676 c 2.4194,-1.7919 4.5419,-2.5725 5.2136,-2.8471 0.6794,-0.2621 1.8976,-0.7548 3.3717,-1.3034 1.4694,-0.5032 3.2492,-1.2314 4.7684,-2.1217 3.1146,-1.7031 5.6962,-3.625 5.6921,-3.6257 0.0052,7e-4 -2.755,1.5305 -5.9621,2.8003 -1.6182,0.6898 -3.2715,1.1433 -4.8147,1.5005 -1.5186,0.3906 -2.8012,0.7883 -3.5075,1.0615 C 16.7142,15.0834 8.80133,17.6154 4.75967,26.103 3.84546,28.2709 3.27209,30.5135 2.90078,32.6149 1.98715,32.0992 0.849796,31.1012 0.53998,29.2541 0,26.0359 0.300445,16.3791 9.05141,11.0147 17.803,5.65096 27.5736,6.723 32.2495,5.14988 36.9248,3.57675 38.7831,0 38.7831,0 c 0,0 -3.8964,36.4069 -28.7724,39.0535 z"
         id="path134"
         style="fill:#c8f7c5;fill-opacity:1" />
    </g>
    <path
       id="path5928"
       d="m 65.472153,1001.359 c 2.024507,-0.4396 3.541808,-2.34536 3.541808,-4.50346 0,-1.3691 -0.624508,-2.5832 -1.592055,-3.4101 0.05572,-0.3602 0.0909,-0.7205 0.0909,-1.0988 0,-2.4589 -1.169851,-4.6404 -3.002327,-6.0041 l 1.501164,-1.4951 v -1.4952 l 1.501162,-1.4951 -1.501162,-1.4952 -1.501164,1.4952 h -1.501163 l -6.004653,6.004 -3.002327,1.4952 v 3.0011 l 1.501155,1.497 h 3.002327 l 1.501163,-3.003 2.251746,-2.2517 c 1.301789,0.7746 2.251745,2.122 2.251745,3.7523 -2.487757,0 -4.503491,2.0158 -4.503491,4.5035 H 51 v 1.4951 h 4.50349 c 0.448589,0.3243 0.986593,0.5224 1.501163,0.7566 v 2.25176 H 54.002327 L 51,1004.3619 h 18.013961 l -3.002327,-3.0029 h -0.539481 z m -2.462846,-4.50346 c 0,-0.8287 0.671418,-1.4952 1.501163,-1.4952 0.829745,0 1.501163,0.6665 1.501163,1.4952 0,0.8286 -0.671418,1.4951 -1.501163,1.4951 -0.829745,0 -1.501163,-0.6665 -1.501163,-1.4951 z"
       inkscape:connector-curvature="0"
       style="fill:#c8f7c5;fill-opacity:1" />
    <g
       id="g5950"
       transform="matrix(0.08191126,0,0,0.08191126,88.92379,980.32954)"
       style="fill:none;stroke:#c8f7c5;stroke-width:12.20833397;stroke-miterlimit:4;stroke-opacity:1;stroke-dasharray:none">
      <ellipse
         ry="144"
         rx="40"
         cy="153"
         cx="135"
         id="e"
         sodipodi:cx="135"
         sodipodi:cy="153"
         sodipodi:rx="40"
         sodipodi:ry="144"
         style="fill:none;stroke:#c8f7c5;stroke-width:12.20833397;stroke-miterlimit:4;stroke-opacity:1;stroke-dasharray:none"
         d="m 175,153 c 0,79.529 -17.90861,144 -40,144 C 112.90861,297 95,232.529 95,153 95,73.470996 112.90861,9 135,9 c 22.09139,0 40,64.470996 40,144 z" />
      <use
         id="use5940"
         transform="matrix(0.5,0.8660254,-0.8660254,0.5,200.00189,-40.41343)"
         xlink:href="#e"
         x="0"
         y="0"
         width="1"
         height="1"
         style="fill:none;stroke:#c8f7c5;stroke-width:12.20833397;stroke-miterlimit:4;stroke-opacity:1;stroke-dasharray:none" />
      <use
         id="use5942"
         transform="matrix(0.5,-0.8660254,0.8660254,0.5,-65.001887,193.41343)"
         xlink:href="#e"
         x="0"
         y="0"
         width="1"
         height="1"
         style="fill:none;stroke:#c8f7c5;stroke-width:12.20833397;stroke-miterlimit:4;stroke-opacity:1;stroke-dasharray:none" />
    </g>
    <path
       id="path5978"
       d="m 31.71419,1000.6107 -4.52423,-4.52586 c -0.39879,-0.3977 -1.11879,-0.3602 -1.842,0.016 l -2.08865,-2.0872 c 1.09136,-1.4297 1.74086,-3.2145 1.74086,-5.1518 0,-4.6942 -3.80615,-8.5001 -8.5001,-8.5001 -4.69394,0 -8.50009,3.8059 -8.50009,8.5001 0,4.6941 3.80615,8.5001 8.50009,8.5001 1.93758,0 3.72301,-0.6498 5.15273,-1.7416 l 2.08822,2.0874 c -0.37607,0.7252 -0.41507,1.4449 -0.0169,1.8431 l 4.52487,4.52586 c 0.57108,0.5709 1.81201,0.257 2.76794,-0.7003 0.95615,-0.9546 1.269,-2.1947 0.69729,-2.7658 z m -15.21412,-5.24886 c -3.58993,0 -6.49994,-2.91 -6.49994,-6.5 0,-3.5899 2.91001,-6.4999 6.49994,-6.4999 3.58994,-2e-4 6.49995,2.9098 6.49995,6.4999 0,3.5902 -2.91001,6.5 -6.49995,6.5 z"
       inkscape:connector-curvature="0"
       style="fill:#c8f7c5;fill-opacity:1" />
    <g
       id="g6018"
       transform="matrix(0.04968944,0,0,0.04968944,127.55435,979.86654)"
       style="fill:#c8f7c5;fill-opacity:1;stroke:none">
      <circle
         id="circle6020"
         r="75.217003"
         cy="285.30899"
         cx="255.811"
         sodipodi:cx="255.811"
         sodipodi:cy="285.30899"
         sodipodi:rx="75.217003"
         sodipodi:ry="75.217003"
         d="m 331.02801,285.30899 c 0,41.5412 -33.6758,75.217 -75.21701,75.217 -41.5412,0 -75.217,-33.6758 -75.217,-75.217 0,-41.5412 33.6758,-75.217 75.217,-75.217 41.54121,0 75.21701,33.6758 75.21701,75.217 z"
         style="fill:#c8f7c5;fill-opacity:1;stroke:none" />
      <path
         id="path6022"
         d="M 477,137 H 352.718 L 349,108 C 349,91.432 335.568,78 319,78 H 191 c -16.568,0 -30,13.432 -30,30 l -3.718,29 H 34 c -11.046,0 -20,8.454 -20,19.5 v 258 c 0,11.046 8.954,20.5 20,20.5 h 443 c 11.046,0 20,-9.454 20,-20.5 v -258 C 497,145.454 488.046,137 477,137 z M 255.595,408.562 c -67.928,0 -122.994,-55.066 -122.994,-122.993 0,-67.928 55.066,-122.994 122.994,-122.994 67.928,0 122.994,55.066 122.994,122.994 0,67.926 -55.066,122.993 -122.994,122.993 z M 474,190 H 369 v -31 h 105 v 31 z"
         inkscape:connector-curvature="0"
         style="fill:#c8f7c5;fill-opacity:1;stroke:none" />
    </g>
    <g
       id="g11"
       transform="matrix(0.01746293,0,0,0.01753086,-2.6018824,1014.7997)">
      <title
         id="title13">Layer 1</title>
      <path
         style="fill:#1e824f;fill-opacity:1;fill-rule:evenodd;stroke-width:37;stroke-miterlimit:10"
         d="M 9.59375,85 C 9.3036325,85.015922 8.9832042,85.048994 8.6875,85.09375 5.7941895,85.531671 3.6623497,87.21756 2.375,89.25 1.5922767,90.485715 1.0371087,91.990906 1,93.875 c -0.0379817,1.928342 0.5752848,3.405345 1.3125,4.6875 0.3686948,0.641226 0.6788043,1.28841 1.0625,1.90625 1.1494102,1.85091 2.3964042,3.62267 3.46875,5.53125 1.4457032,2.57301 2.6355322,5.35138 3.3125,8.6875 0.979391,-5.06151 3.21116,-8.75295 5.59375,-12.375 0.799977,-1.21594 1.614175,-2.423633 2.25,-3.75 0.325684,-0.679478 0.678708,-1.332753 0.90625,-2.09375 0.224923,-0.751828 0.3984,-1.646252 0.375,-2.625 -0.04558,-1.910373 -0.585326,-3.385288 -1.375,-4.625 -0.756494,-1.187769 -1.777299,-2.183007 -3.0625,-2.9375 C 13.467504,85.47338 11.624573,84.888543 9.59375,85 z m 0.53125,5.625 c 1.768157,0 3.21875,1.443715 3.21875,3.21875 0,1.775035 -1.450593,3.21875 -3.21875,3.21875 -1.7681569,0 -3.1875,-1.443715 -3.1875,-3.21875 0,-1.775035 1.4193431,-3.21875 3.1875,-3.21875 z"
         transform="matrix(57.264159,0,0,57.042267,148.99461,-4702.423)"
         id="svg_2"
         inkscape:connector-curvature="0" />
      <path
         d="m 731.37903,1838.9554 c 131.60394,-120.87 211.31396,-235.9799 269.14097,-350.4899 42.89,-84.9501 70.5401,-169.1701 106.95,-254.0601 12.16,-28.34 28.51,-56.57 42.52,-85.2999 28.02,-57.4501 72.66,-118.14 169.03,-178.10007 94.1601,-58.58996 193.95,-93.75598 291.58,-114.69696 160.56,-34.44202 344.28,-37.29901 502.5899,15.59302 129.45,43.24396 204.6802,113.46393 233.7801,178.86391 23.78,53.44 21.4299,108.18 -1.0401,163.1 -23.4599,57.32 -69.5698,116.07 -161.1098,177.39 -46.9002,31.42 -98.9002,56.3401 -146.4101,74.87 -48.0901,18.76 -96.5999,30.39 -145.33,44.32 -95.12,27.19 -192.42,47.1501 -289.8901,67.08 -290.3199,59.34 -577.25,124.3201 -871.81087,261.43 z"
         clip-rule="evenodd"
         id="svg_3"
         inkscape:connector-curvature="0"
         style="opacity:0.25;fill:#000000;fill-rule:evenodd;filter:url(#svg_3_blur)" />
      <circle
         transform="translate(0.02305041,0.00464358)"
         r="183.33299"
         cy="651.047"
         cx="729.54602"
         clip-rule="evenodd"
         id="svg_4-8"
         style="opacity:0.5;fill:#1e824f;fill-opacity:1;fill-rule:evenodd"
         sodipodi:cx="729.54602"
         sodipodi:cy="651.047"
         sodipodi:rx="183.33299"
         sodipodi:ry="183.33299"
         d="m 912.87901,651.047 c 0,101.25201 -82.08097,183.33299 -183.33299,183.33299 -101.25202,0 -183.33299,-82.08098 -183.33299,-183.33299 0,-101.25202 82.08097,-183.333 183.33299,-183.333 101.25202,0 183.33299,82.08098 183.33299,183.333 z" />
    </g>
  </g>
</svg>
